<svg width="226" height="33" viewBox="0 0 226 33" fill="none" xmlns="http://www.w3.org/2000/svg">
<path d="M7.108 16.784H3.112V26H0.88V1.736H6.712C9.544 1.736 11.764 2.456 13.372 3.896C15.004 5.312 15.82 7.184 15.82 9.512C15.82 11.528 15.028 13.244 13.444 14.66C11.884 16.076 9.772 16.784 7.108 16.784ZM6.964 3.716H3.112V14.804H7.36C9.256 14.804 10.756 14.3 11.86 13.292C12.988 12.284 13.552 11.024 13.552 9.512C13.552 7.736 12.976 6.332 11.824 5.3C10.672 4.244 9.052 3.716 6.964 3.716ZM33.2454 25.1C31.8054 25.82 30.1254 26.18 28.2054 26.18C25.4934 26.18 23.2854 25.34 21.5814 23.66C19.9014 21.956 19.0614 19.724 19.0614 16.964C19.0614 14.036 19.8054 11.732 21.2934 10.052C22.7814 8.372 24.7134 7.532 27.0894 7.532C29.3214 7.532 31.0974 8.264 32.4174 9.728C33.7374 11.192 34.3974 13.256 34.3974 15.92C34.3974 16.736 34.3494 17.384 34.2534 17.864H21.3654C21.5334 19.88 22.2294 21.428 23.4534 22.508C24.6774 23.564 26.2974 24.092 28.3134 24.092C30.3774 24.092 32.0214 23.684 33.2454 22.868V25.1ZM27.0174 9.584C25.4814 9.584 24.1974 10.124 23.1654 11.204C22.1334 12.284 21.5334 13.832 21.3654 15.848H32.1294V15.02C32.1294 13.364 31.6614 12.044 30.7254 11.06C29.8134 10.076 28.5774 9.584 27.0174 9.584ZM41.0414 26H38.8454V7.748H41.0414V10.844C42.0494 8.636 43.7534 7.532 46.1534 7.532C46.3214 7.532 46.6214 7.556 47.0534 7.604V9.836C46.5734 9.692 46.0934 9.62 45.6134 9.62C44.3174 9.62 43.2254 10.268 42.3374 11.564C41.4734 12.836 41.0414 14.252 41.0414 15.812V26ZM60.7857 21.32C60.7857 22.832 60.2577 24.032 59.2017 24.92C58.1697 25.784 56.7417 26.216 54.9177 26.216C52.7097 26.216 50.9337 25.856 49.5897 25.136V22.868C51.1977 23.78 52.9257 24.236 54.7737 24.236C55.9977 24.236 56.9217 23.984 57.5457 23.48C58.1937 22.976 58.5177 22.316 58.5177 21.5C58.5177 20.54 58.1817 19.796 57.5097 19.268C56.8617 18.74 55.7817 18.176 54.2697 17.576C52.8057 17 51.6417 16.328 50.7777 15.56C49.9137 14.792 49.4817 13.736 49.4817 12.392C49.4817 10.928 50.0217 9.764 51.1017 8.9C52.1817 8.012 53.5377 7.568 55.1697 7.568C57.1377 7.568 58.6497 7.844 59.7057 8.396V10.592C58.5777 9.944 57.0537 9.62 55.1337 9.62C54.0777 9.62 53.2377 9.872 52.6137 10.376C52.0137 10.856 51.7137 11.492 51.7137 12.284C51.7137 12.764 51.7977 13.184 51.9657 13.544C52.1577 13.904 52.4697 14.24 52.9017 14.552C53.3577 14.84 53.7417 15.056 54.0537 15.2C54.3657 15.344 54.8697 15.56 55.5657 15.848C57.2457 16.52 58.5297 17.264 59.4177 18.08C60.3297 18.872 60.7857 19.952 60.7857 21.32ZM67.1307 26H64.9347V7.748H67.1307V26ZM67.0947 0.835998C67.4067 1.124 67.5627 1.484 67.5627 1.916C67.5627 2.348 67.4067 2.708 67.0947 2.996C66.8067 3.284 66.4467 3.428 66.0147 3.428C65.5827 3.428 65.2227 3.284 64.9347 2.996C64.6467 2.708 64.5027 2.348 64.5027 1.916C64.5027 1.484 64.6467 1.124 64.9347 0.835998C65.2227 0.523999 65.5827 0.368 66.0147 0.368C66.4467 0.368 66.8067 0.523999 67.0947 0.835998ZM78.028 24.164C79.468 24.164 80.62 23.768 81.484 22.976C82.348 22.184 82.78 21.176 82.78 19.952V17.324H79.216C77.512 17.324 76.24 17.66 75.4 18.332C74.56 18.98 74.14 19.796 74.14 20.78C74.14 21.788 74.464 22.604 75.112 23.228C75.784 23.852 76.756 24.164 78.028 24.164ZM82.78 23.876C81.772 25.412 80.02 26.18 77.524 26.18C75.844 26.18 74.464 25.688 73.384 24.704C72.328 23.696 71.8 22.412 71.8 20.852C71.8 19.1 72.472 17.744 73.816 16.784C75.184 15.8 76.984 15.308 79.216 15.308H82.78V14.48C82.78 12.848 82.432 11.624 81.736 10.808C81.04 9.968 79.876 9.548 78.244 9.548C76.348 9.548 74.644 10.064 73.132 11.096V8.72C74.524 7.88 76.24 7.46 78.28 7.46C82.744 7.46 84.976 9.8 84.976 14.48V26H82.78V23.876ZM104.032 26H101.836V13.94C101.836 12.524 101.476 11.444 100.756 10.7C100.036 9.956 99.0878 9.584 97.9118 9.584C96.4238 9.584 95.1398 10.16 94.0598 11.312C92.9798 12.44 92.4398 13.976 92.4398 15.92V26H90.2438V7.748H92.4398V10.88C93.5678 8.6 95.4998 7.46 98.2358 7.46C99.9878 7.46 101.392 8 102.448 9.08C103.504 10.16 104.032 11.552 104.032 13.256V26ZM126.759 24.812C125.271 25.796 123.207 26.288 120.567 26.288C116.943 26.288 113.979 25.16 111.675 22.904C109.371 20.648 108.219 17.624 108.219 13.832C108.219 10.16 109.371 7.172 111.675 4.868C114.003 2.564 116.943 1.412 120.495 1.412C123.087 1.412 125.163 1.856 126.723 2.744V6.38C125.667 5.804 124.707 5.408 123.843 5.192C123.003 4.952 121.923 4.832 120.603 4.832C118.179 4.832 116.151 5.66 114.519 7.316C112.911 8.948 112.107 11.12 112.107 13.832C112.107 16.592 112.911 18.788 114.519 20.42C116.127 22.052 118.251 22.868 120.891 22.868C123.219 22.868 125.175 22.268 126.759 21.068V24.812ZM136.747 23.372C137.899 23.372 138.799 23.06 139.447 22.436C140.119 21.788 140.455 20.948 140.455 19.916V17.864H137.719C136.375 17.864 135.355 18.128 134.659 18.656C133.987 19.184 133.651 19.856 133.651 20.672C133.651 21.512 133.915 22.172 134.443 22.652C134.971 23.132 135.739 23.372 136.747 23.372ZM140.563 23.84C139.627 25.376 137.983 26.144 135.631 26.144C133.903 26.144 132.511 25.652 131.455 24.668C130.423 23.66 129.907 22.388 129.907 20.852C129.907 19.1 130.567 17.744 131.887 16.784C133.207 15.8 135.055 15.308 137.431 15.308H140.455V14.264C140.455 13.016 140.155 12.08 139.555 11.456C138.955 10.808 137.959 10.484 136.567 10.484C134.623 10.484 132.859 11.024 131.275 12.104V8.684C132.691 7.868 134.563 7.46 136.891 7.46C141.667 7.46 144.055 9.776 144.055 14.408V26H140.563V23.84ZM152.336 26H148.808V7.748H152.336V10.952C153.224 8.696 154.82 7.568 157.124 7.568C157.46 7.568 157.832 7.604 158.24 7.676V11.132C157.736 10.916 157.172 10.808 156.548 10.808C155.324 10.808 154.316 11.348 153.524 12.428C152.732 13.508 152.336 14.792 152.336 16.28V26ZM164.535 32.984H161.007V7.748H164.535V10.556C165.783 8.516 167.655 7.496 170.151 7.496C172.551 7.496 174.447 8.372 175.839 10.124C177.231 11.852 177.927 14.06 177.927 16.748C177.927 19.508 177.207 21.788 175.767 23.588C174.351 25.364 172.455 26.252 170.079 26.252C167.655 26.252 165.807 25.244 164.535 23.228V32.984ZM164.535 16.82C164.535 18.932 165.027 20.516 166.011 21.572C167.019 22.628 168.159 23.156 169.431 23.156C170.847 23.156 172.011 22.604 172.923 21.5C173.835 20.372 174.291 18.8 174.291 16.784C174.291 14.888 173.847 13.388 172.959 12.284C172.071 11.156 170.943 10.592 169.575 10.592C168.207 10.592 167.019 11.096 166.011 12.104C165.027 13.088 164.535 14.66 164.535 16.82ZM195.498 25.028C194.154 25.796 192.378 26.18 190.17 26.18C187.338 26.18 185.082 25.328 183.402 23.624C181.722 21.92 180.882 19.688 180.882 16.928C180.882 14 181.65 11.708 183.186 10.052C184.722 8.372 186.678 7.532 189.054 7.532C191.382 7.532 193.23 8.264 194.598 9.728C195.966 11.168 196.65 13.256 196.65 15.992C196.65 16.736 196.578 17.516 196.434 18.332H184.446C184.686 19.916 185.358 21.128 186.462 21.968C187.566 22.808 188.958 23.228 190.638 23.228C192.582 23.228 194.202 22.772 195.498 21.86V25.028ZM189.126 10.448C187.926 10.448 186.894 10.892 186.03 11.78C185.166 12.644 184.626 13.904 184.41 15.56H193.23V14.912C193.182 13.544 192.81 12.464 192.114 11.672C191.418 10.856 190.422 10.448 189.126 10.448ZM210.38 25.532C209.588 25.964 208.616 26.18 207.464 26.18C203.696 26.18 201.812 24.272 201.812 20.456V10.484H198.968V7.748H201.812V3.284H205.376V7.748H210.164V10.484H205.376V20.528C205.376 22.28 206.216 23.156 207.896 23.156C208.88 23.156 209.708 22.892 210.38 22.364V25.532ZM225.681 20.96C225.681 22.592 225.105 23.876 223.953 24.812C222.801 25.724 221.241 26.18 219.273 26.18C217.113 26.18 215.313 25.82 213.873 25.1V21.752C215.553 22.784 217.293 23.3 219.093 23.3C220.029 23.3 220.749 23.108 221.253 22.724C221.781 22.34 222.045 21.836 222.045 21.212C222.045 20.684 221.841 20.216 221.433 19.808C221.025 19.376 220.605 19.064 220.173 18.872C219.765 18.656 219.057 18.332 218.049 17.9C215.193 16.724 213.765 14.996 213.765 12.716C213.765 11.108 214.365 9.848 215.565 8.936C216.765 8.024 218.265 7.568 220.065 7.568C222.033 7.568 223.569 7.832 224.673 8.36V11.564C223.497 10.868 221.985 10.52 220.137 10.52C219.297 10.52 218.625 10.712 218.121 11.096C217.641 11.48 217.401 11.984 217.401 12.608C217.401 12.776 217.413 12.944 217.437 13.112C217.485 13.256 217.557 13.412 217.653 13.58C217.749 13.724 217.833 13.856 217.905 13.976C218.001 14.072 218.145 14.18 218.337 14.3C218.529 14.42 218.673 14.528 218.769 14.624C218.889 14.696 219.069 14.792 219.309 14.912C219.573 15.032 219.765 15.128 219.885 15.2C220.005 15.248 220.209 15.344 220.497 15.488C220.809 15.608 221.025 15.692 221.145 15.74C222.561 16.364 223.665 17.072 224.457 17.864C225.273 18.632 225.681 19.664 225.681 20.96Z" fill="white"/>
</svg>
